<?xml version="1.0" encoding="UTF-8" standalone="no"?>
<svg viewBox="-0.5 -0.5 331.0 361.0" preserveAspectRatio="xMidYMin meet" data-height="361.5" data-width="331.5" style="max-height:361.5px; max-width:331.5px" xmlns="http://www.w3.org/2000/svg">

<style type="text/css">

        g rect {        fill:#ffffff;        stroke-width:1.0;        stroke:#000001;    }

        .cx-c {        font-size:11.0px;        font-family:monospace;        pointer-events:none;        font-weight:bold;        fill:#000002;        text-anchor:start;    }

        .cx-a {        font-size:14.0px;        font-family:monospace;        text-anchor:middle;        pointer-events:none;        fill:#000003;    }
    
</style>
<g id="cx-0-6"><rect  x="180.0" y="0.0" width="30.0" height="30.0" /><text dy="1em"  class="cx-c" x="182.0" y="2.0" >1</text><text dy=".28em"  class="cx-a" x="195.0" y="15.0"></text></g><g id="cx-1-6"><rect  x="180.0" y="30.0" width="30.0" height="30.0" /><text dy=".28em"  class="cx-a" x="195.0" y="45.0"></text></g><g id="cx-2-6"><rect  x="180.0" y="60.0" width="30.0" height="30.0" /><text dy=".28em"  class="cx-a" x="195.0" y="75.0"></text></g><g id="cx-3-4"><rect  x="120.0" y="90.0" width="30.0" height="30.0" /><text dy="1em"  class="cx-c" x="122.0" y="92.0" >2</text><text dy=".28em"  class="cx-a" x="135.0" y="105.0"></text></g><g id="cx-3-6"><rect  x="180.0" y="90.0" width="30.0" height="30.0" /><text dy=".28em"  class="cx-a" x="195.0" y="105.0"></text></g><g id="cx-4-4"><rect  x="120.0" y="120.0" width="30.0" height="30.0" /><text dy=".28em"  class="cx-a" x="135.0" y="135.0"></text></g><g id="cx-4-6"><rect  x="180.0" y="120.0" width="30.0" height="30.0" /><text dy=".28em"  class="cx-a" x="195.0" y="135.0"></text></g><g id="cx-5-4"><rect  x="120.0" y="150.0" width="30.0" height="30.0" /><text dy=".28em"  class="cx-a" x="135.0" y="165.0"></text></g><g id="cx-5-6"><rect  x="180.0" y="150.0" width="30.0" height="30.0" /><text dy=".28em"  class="cx-a" x="195.0" y="165.0"></text></g><g id="cx-6-0"><rect  x="0.0" y="180.0" width="30.0" height="30.0" /><text dy="1em"  class="cx-c" x="2.0" y="182.0" >3</text><text dy=".28em"  class="cx-a" x="15.0" y="195.0"></text></g><g id="cx-6-1"><rect  x="30.0" y="180.0" width="30.0" height="30.0" /><text dy=".28em"  class="cx-a" x="45.0" y="195.0"></text></g><g id="cx-6-2"><rect  x="60.0" y="180.0" width="30.0" height="30.0" /><text dy=".28em"  class="cx-a" x="75.0" y="195.0"></text></g><g id="cx-6-3"><rect  x="90.0" y="180.0" width="30.0" height="30.0" /><text dy=".28em"  class="cx-a" x="105.0" y="195.0"></text></g><g id="cx-6-4"><rect  x="120.0" y="180.0" width="30.0" height="30.0" /><text dy=".28em"  class="cx-a" x="135.0" y="195.0"></text></g><g id="cx-6-5"><rect  x="150.0" y="180.0" width="30.0" height="30.0" /><text dy=".28em"  class="cx-a" x="165.0" y="195.0"></text></g><g id="cx-6-6"><rect  x="180.0" y="180.0" width="30.0" height="30.0" /><text dy=".28em"  class="cx-a" x="195.0" y="195.0"></text></g><g id="cx-7-4"><rect  x="120.0" y="210.0" width="30.0" height="30.0" /><text dy=".28em"  class="cx-a" x="135.0" y="225.0"></text></g><g id="cx-7-6"><rect  x="180.0" y="210.0" width="30.0" height="30.0" /><text dy=".28em"  class="cx-a" x="195.0" y="225.0"></text></g><g id="cx-8-4"><rect  x="120.0" y="240.0" width="30.0" height="30.0" /><text dy=".28em"  class="cx-a" x="135.0" y="255.0"></text></g><g id="cx-9-2"><rect  x="60.0" y="270.0" width="30.0" height="30.0" /><text dy="1em"  class="cx-c" x="62.0" y="272.0" >4</text><text dy=".28em"  class="cx-a" x="75.0" y="285.0"></text></g><g id="cx-9-3"><rect  x="90.0" y="270.0" width="30.0" height="30.0" /><text dy=".28em"  class="cx-a" x="105.0" y="285.0"></text></g><g id="cx-9-4"><rect  x="120.0" y="270.0" width="30.0" height="30.0" /><text dy=".28em"  class="cx-a" x="135.0" y="285.0"></text></g><g id="cx-9-5"><rect  x="150.0" y="270.0" width="30.0" height="30.0" /><text dy=".28em"  class="cx-a" x="165.0" y="285.0"></text></g><g id="cx-9-6"><rect  x="180.0" y="270.0" width="30.0" height="30.0" /><text dy=".28em"  class="cx-a" x="195.0" y="285.0"></text></g><g id="cx-9-7"><rect  x="210.0" y="270.0" width="30.0" height="30.0" /><text dy=".28em"  class="cx-a" x="225.0" y="285.0"></text></g><g id="cx-9-8"><rect  x="240.0" y="270.0" width="30.0" height="30.0" /><text dy=".28em"  class="cx-a" x="255.0" y="285.0"></text></g><g id="cx-9-9"><rect  x="270.0" y="270.0" width="30.0" height="30.0" /><text dy=".28em"  class="cx-a" x="285.0" y="285.0"></text></g><g id="cx-9-10"><rect  x="300.0" y="270.0" width="30.0" height="30.0" /><text dy=".28em"  class="cx-a" x="315.0" y="285.0"></text></g><g id="cx-10-4"><rect  x="120.0" y="300.0" width="30.0" height="30.0" /><text dy=".28em"  class="cx-a" x="135.0" y="315.0"></text></g><g id="cx-11-4"><rect  x="120.0" y="330.0" width="30.0" height="30.0" /><text dy=".28em"  class="cx-a" x="135.0" y="345.0"></text></g></svg>