<?xml version="1.0" encoding="UTF-8" standalone="no"?>
<svg viewBox="-0.5 -0.5 1021.0 751.0" preserveAspectRatio="xMidYMin meet" data-height="751.5" data-width="1021.5" style="max-height:751.5px; max-width:1021.5px" xmlns="http://www.w3.org/2000/svg">

<style type="text/css">

        g rect {        fill:#ffffff;        stroke-width:1.0;        stroke:#000001;    }

        .cx-c {        font-size:11.0px;        font-family:monospace;        pointer-events:none;        font-weight:bold;        fill:#000002;        text-anchor:start;    }

        .cx-a {        font-size:14.0px;        font-family:monospace;        text-anchor:middle;        pointer-events:none;        fill:#000003;    }
    
</style>
<g id="cx-0-28"><rect x="840.0" y="0.0" width="30.0" height="30.0"/><text dy="1em" class="cx-c" x="842.0" y="2.0">1</text><text dy=".28em" class="cx-a" x="855.0" y="15.0"/></g><g id="cx-1-28"><rect x="840.0" y="30.0" width="30.0" height="30.0"/><text dy=".28em" class="cx-a" x="855.0" y="45.0"/></g><g id="cx-2-28"><rect x="840.0" y="60.0" width="30.0" height="30.0"/><text dy=".28em" class="cx-a" x="855.0" y="75.0"/></g><g id="cx-3-28"><rect x="840.0" y="90.0" width="30.0" height="30.0"/><text dy=".28em" class="cx-a" x="855.0" y="105.0"/></g><g id="cx-4-28"><rect x="840.0" y="120.0" width="30.0" height="30.0"/><text dy=".28em" class="cx-a" x="855.0" y="135.0"/></g><g id="cx-5-18"><rect x="540.0" y="150.0" width="30.0" height="30.0"/><text dy="1em" class="cx-c" x="542.0" y="152.0">2</text><text dy=".28em" class="cx-a" x="555.0" y="165.0"/></g><g id="cx-5-23"><rect x="690.0" y="150.0" width="30.0" height="30.0"/><text dy="1em" class="cx-c" x="692.0" y="152.0">3</text><text dy=".28em" class="cx-a" x="705.0" y="165.0"/></g><g id="cx-5-28"><rect x="840.0" y="150.0" width="30.0" height="30.0"/><text dy=".28em" class="cx-a" x="855.0" y="165.0"/></g><g id="cx-6-18"><rect x="540.0" y="180.0" width="30.0" height="30.0"/><text dy=".28em" class="cx-a" x="555.0" y="195.0"/></g><g id="cx-6-22"><rect x="660.0" y="180.0" width="30.0" height="30.0"/><text dy="1em" class="cx-c" x="662.0" y="182.0">4</text><text dy=".28em" class="cx-a" x="675.0" y="195.0"/></g><g id="cx-6-23"><rect x="690.0" y="180.0" width="30.0" height="30.0"/><text dy=".28em" class="cx-a" x="705.0" y="195.0"/></g><g id="cx-6-24"><rect x="720.0" y="180.0" width="30.0" height="30.0"/><text dy=".28em" class="cx-a" x="735.0" y="195.0"/></g><g id="cx-6-25"><rect x="750.0" y="180.0" width="30.0" height="30.0"/><text dy=".28em" class="cx-a" x="765.0" y="195.0"/></g><g id="cx-6-26"><rect x="780.0" y="180.0" width="30.0" height="30.0"/><text dy=".28em" class="cx-a" x="795.0" y="195.0"/></g><g id="cx-6-27"><rect x="810.0" y="180.0" width="30.0" height="30.0"/><text dy=".28em" class="cx-a" x="825.0" y="195.0"/></g><g id="cx-6-28"><rect x="840.0" y="180.0" width="30.0" height="30.0"/><text dy=".28em" class="cx-a" x="855.0" y="195.0"/></g><g id="cx-6-29"><rect x="870.0" y="180.0" width="30.0" height="30.0"/><text dy=".28em" class="cx-a" x="885.0" y="195.0"/></g><g id="cx-6-30"><rect x="900.0" y="180.0" width="30.0" height="30.0"/><text dy=".28em" class="cx-a" x="915.0" y="195.0"/></g><g id="cx-6-31"><rect x="930.0" y="180.0" width="30.0" height="30.0"/><text dy=".28em" class="cx-a" x="945.0" y="195.0"/></g><g id="cx-6-32"><rect x="960.0" y="180.0" width="30.0" height="30.0"/><text dy=".28em" class="cx-a" x="975.0" y="195.0"/></g><g id="cx-7-13"><rect x="390.0" y="210.0" width="30.0" height="30.0"/><text dy="1em" class="cx-c" x="392.0" y="212.0">5</text><text dy=".28em" class="cx-a" x="405.0" y="225.0"/></g><g id="cx-7-14"><rect x="420.0" y="210.0" width="30.0" height="30.0"/><text dy=".28em" class="cx-a" x="435.0" y="225.0"/></g><g id="cx-7-15"><rect x="450.0" y="210.0" width="30.0" height="30.0"/><text dy="1em" class="cx-c" x="452.0" y="212.0">6</text><text dy=".28em" class="cx-a" x="465.0" y="225.0"/></g><g id="cx-7-16"><rect x="480.0" y="210.0" width="30.0" height="30.0"/><text dy=".28em" class="cx-a" x="495.0" y="225.0"/></g><g id="cx-7-17"><rect x="510.0" y="210.0" width="30.0" height="30.0"/><text dy=".28em" class="cx-a" x="525.0" y="225.0"/></g><g id="cx-7-18"><rect x="540.0" y="210.0" width="30.0" height="30.0"/><text dy=".28em" class="cx-a" x="555.0" y="225.0"/></g><g id="cx-7-19"><rect x="570.0" y="210.0" width="30.0" height="30.0"/><text dy=".28em" class="cx-a" x="585.0" y="225.0"/></g><g id="cx-7-20"><rect x="600.0" y="210.0" width="30.0" height="30.0"/><text dy=".28em" class="cx-a" x="615.0" y="225.0"/></g><g id="cx-7-23"><rect x="690.0" y="210.0" width="30.0" height="30.0"/><text dy=".28em" class="cx-a" x="705.0" y="225.0"/></g><g id="cx-7-28"><rect x="840.0" y="210.0" width="30.0" height="30.0"/><text dy=".28em" class="cx-a" x="855.0" y="225.0"/></g><g id="cx-8-9"><rect x="270.0" y="240.0" width="30.0" height="30.0"/><text dy="1em" class="cx-c" x="272.0" y="242.0">7</text><text dy=".28em" class="cx-a" x="285.0" y="255.0"/></g><g id="cx-8-15"><rect x="450.0" y="240.0" width="30.0" height="30.0"/><text dy=".28em" class="cx-a" x="465.0" y="255.0"/></g><g id="cx-8-18"><rect x="540.0" y="240.0" width="30.0" height="30.0"/><text dy=".28em" class="cx-a" x="555.0" y="255.0"/></g><g id="cx-8-23"><rect x="690.0" y="240.0" width="30.0" height="30.0"/><text dy=".28em" class="cx-a" x="705.0" y="255.0"/></g><g id="cx-8-26"><rect x="780.0" y="240.0" width="30.0" height="30.0"/><text dy="1em" class="cx-c" x="782.0" y="242.0">8</text><text dy=".28em" class="cx-a" x="795.0" y="255.0"/></g><g id="cx-8-28"><rect x="840.0" y="240.0" width="30.0" height="30.0"/><text dy=".28em" class="cx-a" x="855.0" y="255.0"/></g><g id="cx-9-0"><rect x="0.0" y="270.0" width="30.0" height="30.0"/><text dy="1em" class="cx-c" x="2.0" y="272.0">9</text><text dy=".28em" class="cx-a" x="15.0" y="285.0"/></g><g id="cx-9-1"><rect x="30.0" y="270.0" width="30.0" height="30.0"/><text dy=".28em" class="cx-a" x="45.0" y="285.0"/></g><g id="cx-9-2"><rect x="60.0" y="270.0" width="30.0" height="30.0"/><text dy=".28em" class="cx-a" x="75.0" y="285.0"/></g><g id="cx-9-3"><rect x="90.0" y="270.0" width="30.0" height="30.0"/><text dy=".28em" class="cx-a" x="105.0" y="285.0"/></g><g id="cx-9-4"><rect x="120.0" y="270.0" width="30.0" height="30.0"/><text dy=".28em" class="cx-a" x="135.0" y="285.0"/></g><g id="cx-9-5"><rect x="150.0" y="270.0" width="30.0" height="30.0"/><text dy=".28em" class="cx-a" x="165.0" y="285.0"/></g><g id="cx-9-6"><rect x="180.0" y="270.0" width="30.0" height="30.0"/><text dy=".28em" class="cx-a" x="195.0" y="285.0"/></g><g id="cx-9-7"><rect x="210.0" y="270.0" width="30.0" height="30.0"/><text dy=".28em" class="cx-a" x="225.0" y="285.0"/></g><g id="cx-9-8"><rect x="240.0" y="270.0" width="30.0" height="30.0"/><text dy=".28em" class="cx-a" x="255.0" y="285.0"/></g><g id="cx-9-9"><rect x="270.0" y="270.0" width="30.0" height="30.0"/><text dy=".28em" class="cx-a" x="285.0" y="285.0"/></g><g id="cx-9-15"><rect x="450.0" y="270.0" width="30.0" height="30.0"/><text dy=".28em" class="cx-a" x="465.0" y="285.0"/></g><g id="cx-9-18"><rect x="540.0" y="270.0" width="30.0" height="30.0"/><text dy=".28em" class="cx-a" x="555.0" y="285.0"/></g><g id="cx-9-23"><rect x="690.0" y="270.0" width="30.0" height="30.0"/><text dy=".28em" class="cx-a" x="705.0" y="285.0"/></g><g id="cx-9-26"><rect x="780.0" y="270.0" width="30.0" height="30.0"/><text dy=".28em" class="cx-a" x="795.0" y="285.0"/></g><g id="cx-10-9"><rect x="270.0" y="300.0" width="30.0" height="30.0"/><text dy=".28em" class="cx-a" x="285.0" y="315.0"/></g><g id="cx-10-15"><rect x="450.0" y="300.0" width="30.0" height="30.0"/><text dy=".28em" class="cx-a" x="465.0" y="315.0"/></g><g id="cx-10-17"><rect x="510.0" y="300.0" width="30.0" height="30.0"/><text dy="1em" class="cx-c" x="512.0" y="302.0">10</text><text dy=".28em" class="cx-a" x="525.0" y="315.0"/></g><g id="cx-10-23"><rect x="690.0" y="300.0" width="30.0" height="30.0"/><text dy=".28em" class="cx-a" x="705.0" y="315.0"/></g><g id="cx-10-26"><rect x="780.0" y="300.0" width="30.0" height="30.0"/><text dy="1em" class="cx-c" x="782.0" y="302.0">11</text><text dy=".28em" class="cx-a" x="795.0" y="315.0"/></g><g id="cx-10-27"><rect x="810.0" y="300.0" width="30.0" height="30.0"/><text dy=".28em" class="cx-a" x="825.0" y="315.0"/></g><g id="cx-10-28"><rect x="840.0" y="300.0" width="30.0" height="30.0"/><text dy=".28em" class="cx-a" x="855.0" y="315.0"/></g><g id="cx-10-29"><rect x="870.0" y="300.0" width="30.0" height="30.0"/><text dy=".28em" class="cx-a" x="885.0" y="315.0"/></g><g id="cx-10-30"><rect x="900.0" y="300.0" width="30.0" height="30.0"/><text dy=".28em" class="cx-a" x="915.0" y="315.0"/></g><g id="cx-10-31"><rect x="930.0" y="300.0" width="30.0" height="30.0"/><text dy=".28em" class="cx-a" x="945.0" y="315.0"/></g><g id="cx-10-32"><rect x="960.0" y="300.0" width="30.0" height="30.0"/><text dy=".28em" class="cx-a" x="975.0" y="315.0"/></g><g id="cx-10-33"><rect x="990.0" y="300.0" width="30.0" height="30.0"/><text dy=".28em" class="cx-a" x="1005.0" y="315.0"/></g><g id="cx-11-9"><rect x="270.0" y="330.0" width="30.0" height="30.0"/><text dy=".28em" class="cx-a" x="285.0" y="345.0"/></g><g id="cx-11-14"><rect x="420.0" y="330.0" width="30.0" height="30.0"/><text dy="1em" class="cx-c" x="422.0" y="332.0">12</text><text dy=".28em" class="cx-a" x="435.0" y="345.0"/></g><g id="cx-11-15"><rect x="450.0" y="330.0" width="30.0" height="30.0"/><text dy=".28em" class="cx-a" x="465.0" y="345.0"/></g><g id="cx-11-16"><rect x="480.0" y="330.0" width="30.0" height="30.0"/><text dy=".28em" class="cx-a" x="495.0" y="345.0"/></g><g id="cx-11-17"><rect x="510.0" y="330.0" width="30.0" height="30.0"/><text dy=".28em" class="cx-a" x="525.0" y="345.0"/></g><g id="cx-11-18"><rect x="540.0" y="330.0" width="30.0" height="30.0"/><text dy=".28em" class="cx-a" x="555.0" y="345.0"/></g><g id="cx-11-19"><rect x="570.0" y="330.0" width="30.0" height="30.0"/><text dy=".28em" class="cx-a" x="585.0" y="345.0"/></g><g id="cx-11-20"><rect x="600.0" y="330.0" width="30.0" height="30.0"/><text dy=".28em" class="cx-a" x="615.0" y="345.0"/></g><g id="cx-11-21"><rect x="630.0" y="330.0" width="30.0" height="30.0"/><text dy=".28em" class="cx-a" x="645.0" y="345.0"/></g><g id="cx-11-22"><rect x="660.0" y="330.0" width="30.0" height="30.0"/><text dy=".28em" class="cx-a" x="675.0" y="345.0"/></g><g id="cx-11-23"><rect x="690.0" y="330.0" width="30.0" height="30.0"/><text dy=".28em" class="cx-a" x="705.0" y="345.0"/></g><g id="cx-11-24"><rect x="720.0" y="330.0" width="30.0" height="30.0"/><text dy=".28em" class="cx-a" x="735.0" y="345.0"/></g><g id="cx-11-25"><rect x="750.0" y="330.0" width="30.0" height="30.0"/><text dy=".28em" class="cx-a" x="765.0" y="345.0"/></g><g id="cx-11-26"><rect x="780.0" y="330.0" width="30.0" height="30.0"/><text dy=".28em" class="cx-a" x="795.0" y="345.0"/></g><g id="cx-12-9"><rect x="270.0" y="360.0" width="30.0" height="30.0"/><text dy=".28em" class="cx-a" x="285.0" y="375.0"/></g><g id="cx-12-13"><rect x="390.0" y="360.0" width="30.0" height="30.0"/><text dy="1em" class="cx-c" x="392.0" y="362.0">13</text><text dy=".28em" class="cx-a" x="405.0" y="375.0"/></g><g id="cx-12-15"><rect x="450.0" y="360.0" width="30.0" height="30.0"/><text dy=".28em" class="cx-a" x="465.0" y="375.0"/></g><g id="cx-12-17"><rect x="510.0" y="360.0" width="30.0" height="30.0"/><text dy=".28em" class="cx-a" x="525.0" y="375.0"/></g><g id="cx-12-23"><rect x="690.0" y="360.0" width="30.0" height="30.0"/><text dy=".28em" class="cx-a" x="705.0" y="375.0"/></g><g id="cx-12-26"><rect x="780.0" y="360.0" width="30.0" height="30.0"/><text dy=".28em" class="cx-a" x="795.0" y="375.0"/></g><g id="cx-13-9"><rect x="270.0" y="390.0" width="30.0" height="30.0"/><text dy=".28em" class="cx-a" x="285.0" y="405.0"/></g><g id="cx-13-13"><rect x="390.0" y="390.0" width="30.0" height="30.0"/><text dy=".28em" class="cx-a" x="405.0" y="405.0"/></g><g id="cx-13-17"><rect x="510.0" y="390.0" width="30.0" height="30.0"/><text dy="1em" class="cx-c" x="512.0" y="392.0">14</text><text dy=".28em" class="cx-a" x="525.0" y="405.0"/></g><g id="cx-13-18"><rect x="540.0" y="390.0" width="30.0" height="30.0"/><text dy=".28em" class="cx-a" x="555.0" y="405.0"/></g><g id="cx-13-19"><rect x="570.0" y="390.0" width="30.0" height="30.0"/><text dy=".28em" class="cx-a" x="585.0" y="405.0"/></g><g id="cx-13-20"><rect x="600.0" y="390.0" width="30.0" height="30.0"/><text dy=".28em" class="cx-a" x="615.0" y="405.0"/></g><g id="cx-13-21"><rect x="630.0" y="390.0" width="30.0" height="30.0"/><text dy=".28em" class="cx-a" x="645.0" y="405.0"/></g><g id="cx-13-22"><rect x="660.0" y="390.0" width="30.0" height="30.0"/><text dy=".28em" class="cx-a" x="675.0" y="405.0"/></g><g id="cx-13-23"><rect x="690.0" y="390.0" width="30.0" height="30.0"/><text dy=".28em" class="cx-a" x="705.0" y="405.0"/></g><g id="cx-13-26"><rect x="780.0" y="390.0" width="30.0" height="30.0"/><text dy=".28em" class="cx-a" x="795.0" y="405.0"/></g><g id="cx-14-4"><rect x="120.0" y="420.0" width="30.0" height="30.0"/><text dy="1em" class="cx-c" x="122.0" y="422.0">15</text><text dy=".28em" class="cx-a" x="135.0" y="435.0"/></g><g id="cx-14-9"><rect x="270.0" y="420.0" width="30.0" height="30.0"/><text dy=".28em" class="cx-a" x="285.0" y="435.0"/></g><g id="cx-14-12"><rect x="360.0" y="420.0" width="30.0" height="30.0"/><text dy="1em" class="cx-c" x="362.0" y="422.0">16</text><text dy=".28em" class="cx-a" x="375.0" y="435.0"/></g><g id="cx-14-13"><rect x="390.0" y="420.0" width="30.0" height="30.0"/><text dy=".28em" class="cx-a" x="405.0" y="435.0"/></g><g id="cx-14-14"><rect x="420.0" y="420.0" width="30.0" height="30.0"/><text dy=".28em" class="cx-a" x="435.0" y="435.0"/></g><g id="cx-14-15"><rect x="450.0" y="420.0" width="30.0" height="30.0"/><text dy=".28em" class="cx-a" x="465.0" y="435.0"/></g><g id="cx-14-16"><rect x="480.0" y="420.0" width="30.0" height="30.0"/><text dy=".28em" class="cx-a" x="495.0" y="435.0"/></g><g id="cx-14-17"><rect x="510.0" y="420.0" width="30.0" height="30.0"/><text dy=".28em" class="cx-a" x="525.0" y="435.0"/></g><g id="cx-14-23"><rect x="690.0" y="420.0" width="30.0" height="30.0"/><text dy=".28em" class="cx-a" x="705.0" y="435.0"/></g><g id="cx-14-26"><rect x="780.0" y="420.0" width="30.0" height="30.0"/><text dy=".28em" class="cx-a" x="795.0" y="435.0"/></g><g id="cx-15-4"><rect x="120.0" y="450.0" width="30.0" height="30.0"/><text dy=".28em" class="cx-a" x="135.0" y="465.0"/></g><g id="cx-15-9"><rect x="270.0" y="450.0" width="30.0" height="30.0"/><text dy=".28em" class="cx-a" x="285.0" y="465.0"/></g><g id="cx-15-13"><rect x="390.0" y="450.0" width="30.0" height="30.0"/><text dy=".28em" class="cx-a" x="405.0" y="465.0"/></g><g id="cx-15-17"><rect x="510.0" y="450.0" width="30.0" height="30.0"/><text dy=".28em" class="cx-a" x="525.0" y="465.0"/></g><g id="cx-15-21"><rect x="630.0" y="450.0" width="30.0" height="30.0"/><text dy="1em" class="cx-c" x="632.0" y="452.0">17</text><text dy=".28em" class="cx-a" x="645.0" y="465.0"/></g><g id="cx-15-23"><rect x="690.0" y="450.0" width="30.0" height="30.0"/><text dy=".28em" class="cx-a" x="705.0" y="465.0"/></g><g id="cx-15-26"><rect x="780.0" y="450.0" width="30.0" height="30.0"/><text dy=".28em" class="cx-a" x="795.0" y="465.0"/></g><g id="cx-16-4"><rect x="120.0" y="480.0" width="30.0" height="30.0"/><text dy="1em" class="cx-c" x="122.0" y="482.0">18</text><text dy=".28em" class="cx-a" x="135.0" y="495.0"/></g><g id="cx-16-5"><rect x="150.0" y="480.0" width="30.0" height="30.0"/><text dy=".28em" class="cx-a" x="165.0" y="495.0"/></g><g id="cx-16-6"><rect x="180.0" y="480.0" width="30.0" height="30.0"/><text dy=".28em" class="cx-a" x="195.0" y="495.0"/></g><g id="cx-16-7"><rect x="210.0" y="480.0" width="30.0" height="30.0"/><text dy=".28em" class="cx-a" x="225.0" y="495.0"/></g><g id="cx-16-8"><rect x="240.0" y="480.0" width="30.0" height="30.0"/><text dy=".28em" class="cx-a" x="255.0" y="495.0"/></g><g id="cx-16-9"><rect x="270.0" y="480.0" width="30.0" height="30.0"/><text dy=".28em" class="cx-a" x="285.0" y="495.0"/></g><g id="cx-16-10"><rect x="300.0" y="480.0" width="30.0" height="30.0"/><text dy=".28em" class="cx-a" x="315.0" y="495.0"/></g><g id="cx-16-11"><rect x="330.0" y="480.0" width="30.0" height="30.0"/><text dy=".28em" class="cx-a" x="345.0" y="495.0"/></g><g id="cx-16-12"><rect x="360.0" y="480.0" width="30.0" height="30.0"/><text dy=".28em" class="cx-a" x="375.0" y="495.0"/></g><g id="cx-16-13"><rect x="390.0" y="480.0" width="30.0" height="30.0"/><text dy=".28em" class="cx-a" x="405.0" y="495.0"/></g><g id="cx-16-14"><rect x="420.0" y="480.0" width="30.0" height="30.0"/><text dy=".28em" class="cx-a" x="435.0" y="495.0"/></g><g id="cx-16-17"><rect x="510.0" y="480.0" width="30.0" height="30.0"/><text dy=".28em" class="cx-a" x="525.0" y="495.0"/></g><g id="cx-16-21"><rect x="630.0" y="480.0" width="30.0" height="30.0"/><text dy=".28em" class="cx-a" x="645.0" y="495.0"/></g><g id="cx-16-23"><rect x="690.0" y="480.0" width="30.0" height="30.0"/><text dy=".28em" class="cx-a" x="705.0" y="495.0"/></g><g id="cx-17-4"><rect x="120.0" y="510.0" width="30.0" height="30.0"/><text dy=".28em" class="cx-a" x="135.0" y="525.0"/></g><g id="cx-17-9"><rect x="270.0" y="510.0" width="30.0" height="30.0"/><text dy=".28em" class="cx-a" x="285.0" y="525.0"/></g><g id="cx-17-13"><rect x="390.0" y="510.0" width="30.0" height="30.0"/><text dy=".28em" class="cx-a" x="405.0" y="525.0"/></g><g id="cx-17-17"><rect x="510.0" y="510.0" width="30.0" height="30.0"/><text dy=".28em" class="cx-a" x="525.0" y="525.0"/></g><g id="cx-17-21"><rect x="630.0" y="510.0" width="30.0" height="30.0"/><text dy=".28em" class="cx-a" x="645.0" y="525.0"/></g><g id="cx-18-4"><rect x="120.0" y="540.0" width="30.0" height="30.0"/><text dy=".28em" class="cx-a" x="135.0" y="555.0"/></g><g id="cx-18-9"><rect x="270.0" y="540.0" width="30.0" height="30.0"/><text dy=".28em" class="cx-a" x="285.0" y="555.0"/></g><g id="cx-18-17"><rect x="510.0" y="540.0" width="30.0" height="30.0"/><text dy=".28em" class="cx-a" x="525.0" y="555.0"/></g><g id="cx-18-19"><rect x="570.0" y="540.0" width="30.0" height="30.0"/><text dy="1em" class="cx-c" x="572.0" y="542.0">19</text><text dy=".28em" class="cx-a" x="585.0" y="555.0"/></g><g id="cx-18-21"><rect x="630.0" y="540.0" width="30.0" height="30.0"/><text dy=".28em" class="cx-a" x="645.0" y="555.0"/></g><g id="cx-19-4"><rect x="120.0" y="570.0" width="30.0" height="30.0"/><text dy=".28em" class="cx-a" x="135.0" y="585.0"/></g><g id="cx-19-17"><rect x="510.0" y="570.0" width="30.0" height="30.0"/><text dy=".28em" class="cx-a" x="525.0" y="585.0"/></g><g id="cx-19-19"><rect x="570.0" y="570.0" width="30.0" height="30.0"/><text dy=".28em" class="cx-a" x="585.0" y="585.0"/></g><g id="cx-19-21"><rect x="630.0" y="570.0" width="30.0" height="30.0"/><text dy=".28em" class="cx-a" x="645.0" y="585.0"/></g><g id="cx-20-4"><rect x="120.0" y="600.0" width="30.0" height="30.0"/><text dy=".28em" class="cx-a" x="135.0" y="615.0"/></g><g id="cx-20-17"><rect x="510.0" y="600.0" width="30.0" height="30.0"/><text dy=".28em" class="cx-a" x="525.0" y="615.0"/></g><g id="cx-20-19"><rect x="570.0" y="600.0" width="30.0" height="30.0"/><text dy=".28em" class="cx-a" x="585.0" y="615.0"/></g><g id="cx-20-21"><rect x="630.0" y="600.0" width="30.0" height="30.0"/><text dy=".28em" class="cx-a" x="645.0" y="615.0"/></g><g id="cx-21-4"><rect x="120.0" y="630.0" width="30.0" height="30.0"/><text dy=".28em" class="cx-a" x="135.0" y="645.0"/></g><g id="cx-21-7"><rect x="210.0" y="630.0" width="30.0" height="30.0"/><text dy="1em" class="cx-c" x="212.0" y="632.0">20</text><text dy=".28em" class="cx-a" x="225.0" y="645.0"/></g><g id="cx-21-8"><rect x="240.0" y="630.0" width="30.0" height="30.0"/><text dy=".28em" class="cx-a" x="255.0" y="645.0"/></g><g id="cx-21-9"><rect x="270.0" y="630.0" width="30.0" height="30.0"/><text dy=".28em" class="cx-a" x="285.0" y="645.0"/></g><g id="cx-21-10"><rect x="300.0" y="630.0" width="30.0" height="30.0"/><text dy=".28em" class="cx-a" x="315.0" y="645.0"/></g><g id="cx-21-11"><rect x="330.0" y="630.0" width="30.0" height="30.0"/><text dy=".28em" class="cx-a" x="345.0" y="645.0"/></g><g id="cx-21-12"><rect x="360.0" y="630.0" width="30.0" height="30.0"/><text dy=".28em" class="cx-a" x="375.0" y="645.0"/></g><g id="cx-21-13"><rect x="390.0" y="630.0" width="30.0" height="30.0"/><text dy=".28em" class="cx-a" x="405.0" y="645.0"/></g><g id="cx-21-14"><rect x="420.0" y="630.0" width="30.0" height="30.0"/><text dy=".28em" class="cx-a" x="435.0" y="645.0"/></g><g id="cx-21-15"><rect x="450.0" y="630.0" width="30.0" height="30.0"/><text dy=".28em" class="cx-a" x="465.0" y="645.0"/></g><g id="cx-21-16"><rect x="480.0" y="630.0" width="30.0" height="30.0"/><text dy=".28em" class="cx-a" x="495.0" y="645.0"/></g><g id="cx-21-17"><rect x="510.0" y="630.0" width="30.0" height="30.0"/><text dy=".28em" class="cx-a" x="525.0" y="645.0"/></g><g id="cx-21-18"><rect x="540.0" y="630.0" width="30.0" height="30.0"/><text dy=".28em" class="cx-a" x="555.0" y="645.0"/></g><g id="cx-21-19"><rect x="570.0" y="630.0" width="30.0" height="30.0"/><text dy=".28em" class="cx-a" x="585.0" y="645.0"/></g><g id="cx-21-21"><rect x="630.0" y="630.0" width="30.0" height="30.0"/><text dy=".28em" class="cx-a" x="645.0" y="645.0"/></g><g id="cx-22-4"><rect x="120.0" y="660.0" width="30.0" height="30.0"/><text dy=".28em" class="cx-a" x="135.0" y="675.0"/></g><g id="cx-22-17"><rect x="510.0" y="660.0" width="30.0" height="30.0"/><text dy=".28em" class="cx-a" x="525.0" y="675.0"/></g><rect x="540.0" y="660.0" width="30.0" height="30.0" fill="#000004"/><g id="cx-22-19"><rect x="570.0" y="660.0" width="30.0" height="30.0"/><text dy=".28em" class="cx-a" x="585.0" y="675.0"/></g><g id="cx-22-21"><rect x="630.0" y="660.0" width="30.0" height="30.0"/><text dy=".28em" class="cx-a" x="645.0" y="675.0"/></g><g id="cx-23-4"><rect x="120.0" y="690.0" width="30.0" height="30.0"/><text dy=".28em" class="cx-a" x="135.0" y="705.0"/></g><g id="cx-23-11"><rect x="330.0" y="690.0" width="30.0" height="30.0"/><text dy="1em" class="cx-c" x="332.0" y="692.0">21</text><text dy=".28em" class="cx-a" x="345.0" y="705.0"/></g><g id="cx-23-12"><rect x="360.0" y="690.0" width="30.0" height="30.0"/><text dy=".28em" class="cx-a" x="375.0" y="705.0"/></g><g id="cx-23-13"><rect x="390.0" y="690.0" width="30.0" height="30.0"/><text dy=".28em" class="cx-a" x="405.0" y="705.0"/></g><g id="cx-23-14"><rect x="420.0" y="690.0" width="30.0" height="30.0"/><text dy=".28em" class="cx-a" x="435.0" y="705.0"/></g><g id="cx-23-15"><rect x="450.0" y="690.0" width="30.0" height="30.0"/><text dy=".28em" class="cx-a" x="465.0" y="705.0"/></g><g id="cx-23-16"><rect x="480.0" y="690.0" width="30.0" height="30.0"/><text dy=".28em" class="cx-a" x="495.0" y="705.0"/></g><g id="cx-23-17"><rect x="510.0" y="690.0" width="30.0" height="30.0"/><text dy=".28em" class="cx-a" x="525.0" y="705.0"/></g><g id="cx-23-18"><rect x="540.0" y="690.0" width="30.0" height="30.0"/><text dy=".28em" class="cx-a" x="555.0" y="705.0"/></g><g id="cx-23-19"><rect x="570.0" y="690.0" width="30.0" height="30.0"/><text dy=".28em" class="cx-a" x="585.0" y="705.0"/></g><g id="cx-23-20"><rect x="600.0" y="690.0" width="30.0" height="30.0"/><text dy=".28em" class="cx-a" x="615.0" y="705.0"/></g><g id="cx-23-21"><rect x="630.0" y="690.0" width="30.0" height="30.0"/><text dy=".28em" class="cx-a" x="645.0" y="705.0"/></g><g id="cx-23-22"><rect x="660.0" y="690.0" width="30.0" height="30.0"/><text dy=".28em" class="cx-a" x="675.0" y="705.0"/></g><g id="cx-24-4"><rect x="120.0" y="720.0" width="30.0" height="30.0"/><text dy=".28em" class="cx-a" x="135.0" y="735.0"/></g><g id="cx-24-19"><rect x="570.0" y="720.0" width="30.0" height="30.0"/><text dy=".28em" class="cx-a" x="585.0" y="735.0"/></g><g id="cx-24-21"><rect x="630.0" y="720.0" width="30.0" height="30.0"/><text dy=".28em" class="cx-a" x="645.0" y="735.0"/></g></svg>